<?xml version="1.0" standalone="no"?><!DOCTYPE svg PUBLIC "-//W3C//DTD SVG 1.1//EN" "http://www.w3.org/Graphics/SVG/1.1/DTD/svg11.dtd"><svg class="icon" height="512" viewBox="0 0 1024 1024" version="1.1" xmlns="http://www.w3.org/2000/svg"><path d="M864 864.032v-352a256 256 0 0 0-256-256l91.488-209.12C711.488 16.608 689.696 0.032 672 0.032h-192v128l-64-128h-64c-17.696 0-41.312 14.656-26.432 48.224L416 256.032a256 256 0 0 0-256 256v352c-32 32-64 60.672-64 96s28.672 64 64 64h704c35.328 0 64-28.672 64-64s-32-64-64-96z" fill="#84BF56" /><path d="M543.264 451.648c0.128-1.28 0.736-2.4 0.736-3.744v-32a32 32 0 1 0-64 0v32c0 1.344 0.608 2.464 0.736 3.744C425.248 463.904 384 507.52 384 559.904c0 61.856 57.312 112 128 112 35.328 0 64 21.504 64 48s-28.672 48-64 48-64-21.504-64-48a32 32 0 1 0-64 0c0 52.128 40.896 95.552 96 108.032v35.968a32 32 0 1 0 64 0v-35.968c55.104-12.48 96-55.904 96-108.032 0-61.856-57.312-112-128-112-35.328 0-64-21.504-64-48s28.672-48 64-48 64 21.504 64 48a32 32 0 1 0 64 0c0-52.384-41.248-96-96.736-108.256z" fill="" /><path d="M402.048 223.904l13.952 32h192l14.016-32z" fill="" /></svg>